<svg width="182" height="40" viewBox="0 0 182 40" fill="none" xmlns="http://www.w3.org/2000/svg">
<g clip-path="url(#clip0_13_513)">
<path d="M20.0168 31.4288C17.9694 31.4288 15.922 31.3886 13.8746 31.4489C12.4434 31.4892 11.37 30.4228 11.3899 28.9338C11.4098 24.7286 11.3899 20.5234 11.4098 16.3383C11.4098 14.9701 12.3838 13.9238 13.7355 13.9238C17.9694 13.9037 22.2034 13.9037 26.4373 13.9238C27.7492 13.9238 28.7034 14.9499 28.7233 16.3584C28.7431 18.0888 28.7233 19.8192 28.7233 21.5495C28.7233 23.964 28.7233 26.3986 28.7233 28.8131C28.7233 29.1954 28.6835 29.5576 28.5444 29.8996C28.1667 30.8856 27.4113 31.4288 26.3777 31.4288C24.2508 31.4288 22.1239 31.4288 20.0168 31.4288Z" fill="#1EBE7E"/>
<path d="M36.2371 11.4889C34.8655 11.4889 33.4939 11.4889 32.1224 11.4889C31.1881 11.4889 30.552 10.8652 30.552 9.8994C30.5322 7.90744 30.552 5.91549 30.552 3.94366C30.552 3.17907 30.5322 2.39437 30.552 1.62978C30.552 0.724346 31.2478 0.0201207 32.1224 0.0201207C34.8456 0 37.549 0 40.2722 0C41.3258 0 41.9221 0.603622 41.9221 1.67002C41.9221 4.38632 41.9221 7.0825 41.9022 9.79879C41.9022 10.2213 41.8426 10.6237 41.5643 10.9457C41.2661 11.2877 40.9083 11.4889 40.4511 11.4889C39.0398 11.4688 37.6484 11.4889 36.2371 11.4889Z" fill="#1EC081"/>
<path d="M15.6636 11.851C14.63 11.851 13.5765 11.851 12.5428 11.851C11.6483 11.851 11.1912 11.4285 11.1912 10.523C11.1912 8.41037 11.1912 6.29769 11.1912 4.18501C11.1912 3.38018 11.6086 2.93753 12.4037 2.91741C14.5704 2.85704 16.7172 2.83692 18.8838 2.89729C19.5 2.91741 20.0367 3.42043 20.0367 4.06429C20.0367 6.27757 20.0367 8.51097 20.0169 10.7242C20.0169 11.4084 19.5597 11.8108 18.8639 11.8108C17.7906 11.8108 16.737 11.8108 15.6636 11.8108C15.6636 11.8309 15.6636 11.851 15.6636 11.851Z" fill="#20BF81"/>
<path d="M4.4527 35.4125C3.41906 35.4125 2.38542 35.4125 1.35178 35.4125C0.914475 35.4125 0.497044 35.3522 0.218757 34.9296C0.119368 34.7687 0.01998 34.6077 0.01998 34.4266C0.01998 34.2455 -0.0197754 34.0846 -0.0197754 33.9035C-0.0197754 31.9316 -0.0197754 29.9598 -0.0197754 27.988C-0.0197754 27.163 0.417533 26.6801 1.21264 26.6801C3.2998 26.66 5.38695 26.66 7.47411 26.6801C8.24934 26.6801 8.66677 27.1831 8.68665 28.0282C8.68665 29.4367 8.68665 30.8451 8.68665 32.2334C8.68665 32.8974 8.68665 33.5815 8.66677 34.2455C8.64689 34.9699 8.22946 35.3924 7.51386 35.3924C6.5001 35.4125 5.48634 35.3924 4.4527 35.3924V35.4125Z" fill="#1FBE80"/>
<path d="M30.4128 23.0585C30.4128 22.2336 30.4128 21.3885 30.4128 20.5636C30.4128 19.8593 30.7706 19.4771 31.4862 19.4771C33.0566 19.4771 34.6269 19.4771 36.1972 19.4771C36.4755 19.4771 36.7538 19.4972 36.9725 19.638C37.2508 19.8191 37.3899 20.1008 37.3899 20.4227C37.3899 22.1933 37.4495 23.9439 37.3501 25.7145C37.3303 26.1169 37.1116 26.3181 36.7737 26.4388C36.5352 26.5193 36.2768 26.5394 36.0183 26.5394C34.5673 26.5394 33.0963 26.5394 31.6453 26.5394C31.3471 26.5394 31.0887 26.4388 30.8502 26.3181C30.552 26.1571 30.4327 25.9157 30.4327 25.5937C30.4128 24.7487 30.4128 23.9036 30.4128 23.0585Z" fill="#4FEAA9"/>
<path d="M22.1637 39.9999C21.3487 39.9999 20.5536 39.9999 19.7386 39.9999C19.2814 39.9999 18.9236 39.6779 18.9038 39.195C18.8441 37.525 18.864 35.8349 18.8839 34.1649C18.8839 33.5411 19.2417 33.2393 19.8778 33.2192C21.4282 33.1991 22.9787 33.1991 24.5093 33.2192C25.1056 33.2192 25.4435 33.5411 25.4833 34.1447C25.5032 34.8087 25.5032 35.4526 25.5032 36.1166C25.5032 37.1025 25.5032 38.0884 25.4833 39.0542C25.4833 39.6578 25.1652 39.9798 24.5689 39.9798C23.7539 39.9999 22.9588 39.9798 22.1637 39.9999Z" fill="#1EBE80"/>
<path d="M25.2844 11.8712C24.7477 11.8511 23.9328 11.9316 23.1178 11.831C22.6208 11.7706 22.4817 11.5895 22.4221 11.0865C22.3227 10.161 22.4618 9.2354 22.4221 8.28972C22.4022 7.6861 22.3823 7.08248 22.4221 6.47886C22.4618 5.9356 22.7003 5.67403 23.2172 5.67403C24.6285 5.65391 26.0398 5.63379 27.4511 5.63379C28.3059 5.63379 28.5643 5.87524 28.5643 6.74043C28.5643 8.08852 28.5643 9.45673 28.5444 10.8048C28.5444 10.8853 28.5245 10.9859 28.5245 11.0664C28.4052 11.7304 28.2263 11.8712 27.5704 11.8913C26.8945 11.8712 26.2187 11.8712 25.2844 11.8712Z" fill="#50EAAC"/>
<path d="M2.92198 21.2678C2.92198 20.5635 2.92198 19.8593 2.92198 19.135C2.92198 18.5716 3.16051 18.31 3.69721 18.31C5.06877 18.2899 6.42045 18.2899 7.79201 18.31C8.42809 18.3301 8.64675 18.5515 8.6865 19.1953C8.78589 20.6038 8.72626 21.9921 8.66663 23.4006C8.64675 23.8231 8.38834 24.0847 7.95103 24.1048C6.51984 24.2054 5.10852 24.1651 3.67733 24.1651C3.22014 24.1651 2.9021 23.803 2.9021 23.3603C2.92198 22.6561 2.92198 21.9519 2.92198 21.2678Z" fill="#50EAAC"/>
<path d="M11.7676 35.1712C11.7676 34.7085 11.7676 34.2256 11.7676 33.7628C11.7676 33.461 11.9067 33.2799 12.2049 33.2598C13.1789 33.2195 14.1728 33.1994 15.1468 33.2598C15.4449 33.2799 15.604 33.461 15.604 33.7427C15.6238 34.7085 15.604 35.6743 15.604 36.6401C15.604 36.8815 15.4449 37.0425 15.2064 37.1028C14.8486 37.1833 14.4908 37.1431 14.1529 37.1431C13.5764 37.1431 13 37.1632 12.4235 37.123C11.867 37.0827 11.8073 36.9821 11.8073 36.4389C11.7676 35.9962 11.7676 35.5737 11.7676 35.1712Z" fill="#50E8AC"/>
<path d="M32.6193 17.3038C32.182 17.3038 31.7646 17.3038 31.3273 17.3038C30.9893 17.3038 30.7707 17.1026 30.7707 16.7606C30.7707 15.8149 30.6912 14.8491 30.7707 13.9034C30.7906 13.6217 30.9098 13.4406 31.2279 13.4406C32.1025 13.4406 32.9771 13.4004 33.8319 13.4004C34.4282 13.4004 34.5077 13.4809 34.5673 14.0644C34.6468 14.9497 34.627 15.835 34.5673 16.7002C34.5276 17.163 34.4083 17.2837 33.9114 17.3038C33.4741 17.3038 33.0367 17.3038 32.6193 17.3038Z" fill="#51EAAC"/>
<path d="M72.991 29.5374C70.6653 29.4771 68.3396 29.6581 66.0139 29.4167C64.4436 29.2557 63.3304 28.1088 63.3105 26.5193C63.2509 23.3604 63.2509 20.1813 63.2906 17.0223C63.3105 15.3724 64.6821 14.0042 66.3518 13.9841C70.705 13.9439 75.0582 13.9439 79.4114 14.0042C81.4191 14.0243 82.6515 15.2919 82.6714 17.3443C82.7111 20.3221 82.7111 23.3 82.6714 26.2779C82.6515 28.0686 81.5185 29.296 79.7692 29.4569C77.5231 29.6581 75.257 29.4368 72.991 29.5374Z" fill="#4EAAA0"/>
<path d="M93.7234 13.964C96.069 13.964 98.4145 13.9439 100.78 13.964C103.006 13.9841 104.08 14.9499 104.318 17.1833C104.457 18.4912 104.457 19.8192 104.259 21.1471C103.96 23.0385 102.907 24.0043 100.999 24.0244C98.0965 24.0646 95.1745 24.0445 92.2723 24.0646C90.5827 24.0646 90.5827 24.0646 90.5827 25.7749C90.5827 26.62 90.5629 27.4449 90.5629 28.29C90.5629 28.9942 90.2846 29.4167 89.5292 29.457C88.2769 29.5576 87.0246 29.5375 85.7723 29.457C85.1164 29.4167 84.7983 29.0747 84.7983 28.4308C84.7983 24.0043 84.7983 19.5777 84.8182 15.131C84.8182 14.2256 85.176 13.964 86.2693 13.964C88.754 13.964 91.2387 13.964 93.7234 13.964Z" fill="#56B3A8"/>
<path d="M148.665 23.8635C148.546 25.1513 148.546 25.1714 149.818 25.1714C152.919 25.1714 156.02 25.1714 159.121 25.1714C160.234 25.1714 160.473 25.4128 160.473 26.5597C160.473 27.2036 160.433 27.8475 160.413 28.5114C160.393 29.0949 160.095 29.3967 159.518 29.437C159.22 29.4571 158.942 29.4974 158.644 29.4974C154.072 29.4974 149.5 29.4974 144.948 29.4772C144.729 29.4772 144.531 29.4571 144.312 29.4571C143.099 29.3766 143 29.2358 143 27.9682C143 24.8897 142.96 21.8112 142.94 18.7328C142.94 17.5255 143 16.2982 143.02 15.0909C143.02 14.3867 143.358 14.0446 144.034 14.0245C144.789 14.0044 145.525 14.0044 146.28 14.0044C150.554 14.0044 154.827 14.0044 159.101 14.0245C159.638 14.0245 160.373 13.8434 160.393 14.8092C160.115 14.8696 159.836 14.7489 159.558 14.8092C156.835 14.6483 154.112 14.769 151.388 14.7489C149.281 14.7287 147.174 14.7287 145.047 14.7489C143.815 14.769 143.656 14.9299 143.656 16.1774C143.636 19.9601 143.636 23.7428 143.656 27.5255C143.656 28.6925 143.795 28.8334 144.968 28.8334C149.48 28.8334 153.992 28.8334 158.505 28.8334C158.942 28.8334 159.459 28.9138 159.658 28.3505C159.896 27.6261 159.876 26.9018 159.558 26.2177C159.439 25.9762 159.101 25.9762 158.823 25.9762C156.02 25.9561 153.217 25.8153 150.414 26.0567C149.798 26.1171 149.202 25.936 148.586 25.8555C148.268 25.8153 148.069 25.5738 148.009 25.2519C147.93 24.7489 147.85 24.2257 148.168 23.7629C148.367 23.5819 148.506 23.7026 148.665 23.8635Z" fill="#459A9C"/>
<path d="M118.471 27.1231C115.609 27.1231 112.766 27.1231 109.904 27.103C109.327 27.103 108.989 27.2841 108.83 27.8273C108.453 29.1754 107.578 29.7187 106.187 29.5577C105.312 29.4571 104.417 29.5577 103.543 29.4974C102.489 29.3968 102.31 29.0145 102.708 28.0487C103.424 26.2982 104.457 24.7086 105.332 23.0587C106.783 20.3223 108.254 17.606 109.804 14.9098C110.162 14.2861 110.599 13.9642 111.335 13.9843C113.104 14.0245 114.853 14.0044 116.622 14.0044C117.358 14.0044 117.875 14.2861 118.232 14.9702C119.902 18.1694 121.612 21.3485 123.301 24.5275C123.937 25.7348 124.693 26.9018 125.17 28.1895C125.488 29.0748 125.269 29.4772 124.315 29.4974C123.083 29.5376 121.85 29.4974 120.638 29.4974C119.843 29.4974 119.445 29.0145 119.187 28.3304C119.028 27.8877 118.908 27.4048 118.471 27.1231C118.61 26.9823 118.65 26.7408 118.908 26.7408C119.326 26.942 119.485 27.3646 119.684 27.7469C120.002 28.3304 120.379 28.6724 121.095 28.7328C121.969 28.8133 122.844 28.8535 123.739 28.8133C124.434 28.773 124.534 28.5718 124.295 27.9279C124.057 27.264 123.679 26.6603 123.361 26.0567C121.81 23.1795 120.3 20.3022 118.729 17.4451C118.372 16.8012 118.133 16.1171 117.736 15.5135C117.378 14.93 116.881 14.6684 116.205 14.6684C114.714 14.6885 113.223 14.6885 111.713 14.6684C110.997 14.6684 110.54 14.9702 110.182 15.6141C108.015 19.6785 105.849 23.7428 103.642 27.7871C103.265 28.4913 103.324 28.6925 104.119 28.7931C105.193 28.934 106.246 28.8535 107.3 28.6523C107.777 28.5718 107.856 28.1292 108.075 27.8072C108.353 27.3444 108.453 26.6805 109.208 26.7207C111.971 26.7609 114.734 26.7207 117.477 26.7408C117.855 26.7408 118.332 26.5597 118.471 27.1231Z" fill="#52ABA4"/>
<path d="M47.6469 28.7932C47.4878 29.3969 46.9909 29.4773 46.5138 29.4975C45.4007 29.5176 44.2677 29.4773 43.1545 29.4572C42.3395 29.4572 42.0215 29.0146 42.0414 28.2298C42.0414 26.3989 42.0215 24.5478 42.0215 22.7168C42.0215 20.2822 42.0215 17.8476 42.0414 15.4129C42.0414 14.2459 42.2401 14.0246 43.3732 14.0045C44.4664 13.9643 45.5597 14.0246 46.653 14.0246C47.4481 14.0246 47.7463 14.4472 47.7264 15.1916C47.7264 16.3586 47.7661 17.5256 47.7463 18.6725C47.7264 19.3767 48.0444 19.4975 48.6408 19.417C49.2967 19.3164 49.734 18.8938 50.2111 18.4914C51.7218 17.2037 53.2325 15.916 54.7034 14.588C55.1805 14.1655 55.6973 13.9844 56.2937 13.9844C57.7447 13.9844 59.1759 14.0045 60.627 14.0045C61.0842 14.0045 61.5612 14.0649 61.7004 14.5276C61.8395 15.0307 61.8992 15.6142 61.3028 15.9562C61.1041 16.0568 60.945 16.0367 60.8655 15.7952C61.0047 14.8093 60.945 14.7288 59.971 14.7087C59.2952 14.6886 58.6193 14.7691 57.9634 14.6886C56.2937 14.4673 55.0612 15.1715 53.8885 16.2983C52.7554 17.3848 51.5826 18.4512 50.3304 19.4371C49.9527 19.7389 49.5352 19.9804 49.0582 20.1212C47.8456 20.5035 46.971 19.8999 46.9114 18.6121C46.8518 17.6665 46.9114 16.7208 46.8915 15.7751C46.8716 14.8898 46.7325 14.7288 45.8579 14.7087C45.1622 14.6886 44.4664 14.6886 43.7707 14.7087C42.9557 14.7288 42.757 14.9502 42.6973 15.7952C42.6774 16.0971 42.6973 16.3989 42.6973 16.6806C42.6973 19.6987 42.6973 22.7369 42.6973 25.755C42.6973 26.419 42.7768 27.1031 42.7967 27.7671C42.8166 28.592 43.234 28.7731 43.8701 28.8133C44.6255 28.8536 45.3609 28.8335 46.1163 28.8335C46.4145 28.8335 46.6927 28.7731 46.9114 28.5115C46.9511 28.4109 46.8915 28.5317 46.9511 28.4512C47.1897 28.1494 46.9114 27.3647 47.468 27.4854C47.945 27.586 47.5872 28.2701 47.6667 28.6725C47.6866 28.6926 47.6667 28.753 47.6469 28.7932Z" fill="#389296"/>
<path d="M60.9252 15.7347C61.0047 15.8957 61.1638 15.9158 61.3029 15.936C59.6133 17.5054 57.7249 18.8333 55.9558 20.3022C55.6775 20.5436 55.3595 20.7649 55.0613 20.9863C54.3457 21.5899 54.3457 21.6502 55.0613 22.2136C57.069 23.7629 59.0965 25.2921 61.1041 26.8615C61.7402 27.3645 62.6347 27.8273 62.2968 28.8333C61.9589 29.8193 60.9849 29.437 60.2693 29.4973C59.5735 29.5577 58.8778 29.437 58.1821 29.5376C56.1546 29.7991 54.5842 29.0547 53.1729 27.606C51.9803 26.3987 50.6683 25.3525 49.3962 24.2458C49.2173 24.0848 49.0185 23.944 48.7998 23.8434C48.0644 23.4812 47.7662 23.6824 47.7463 24.5074C47.7264 25.6341 47.7463 26.781 47.7264 27.9078C47.7264 28.2096 47.7861 28.5114 47.6271 28.773C47.5475 28.3706 47.7066 27.9279 47.4879 27.4651C47.0705 27.8273 47.4879 28.3907 47.15 28.7126C47.0108 28.612 46.9512 28.451 46.9512 28.2901C46.9115 26.9219 46.8518 25.5335 46.9711 24.1653C47.0705 23.0587 48.124 22.6362 49.257 23.1995C50.2112 23.6623 50.9069 24.4873 51.6821 25.1714C52.8549 26.1774 53.968 27.284 55.2005 28.2297C55.5781 28.5114 55.9558 28.7529 56.4329 28.773C57.9436 28.8736 59.4742 28.8535 60.9849 28.6321C61.1439 28.612 61.3228 28.5919 61.3824 28.3907C61.442 28.1694 61.283 28.0285 61.1439 27.9078C60.6271 27.4852 60.0904 27.0828 59.5735 26.6603C57.8839 25.2921 56.1546 23.9842 54.465 22.616C53.5506 21.8716 53.5307 21.4289 54.3855 20.6844C56.3136 19.0144 58.3411 17.4651 60.3488 15.9158C60.5277 15.8152 60.6867 15.6744 60.9252 15.7347Z" fill="#45A099"/>
<path d="M148.665 23.8635C148.506 23.8434 148.367 23.8032 148.288 23.6623C148.447 23.0386 148.963 23.1392 149.401 23.1392C152.283 23.1191 155.165 23.1392 158.048 23.1392C159.717 23.1392 159.876 22.8977 159.697 21.2478C159.618 20.5637 159.379 20.3625 158.704 20.3625C155.881 20.4028 153.038 20.3827 150.216 20.3827C149.838 20.3827 149.46 20.3827 149.103 20.3022C148.188 20.1211 147.89 19.7388 147.95 18.773C147.989 17.9682 148.288 17.6462 149.083 17.6261C150.116 17.5859 151.17 17.606 152.204 17.606C154.291 17.606 156.378 17.606 158.445 17.606C159.499 17.606 159.519 17.5255 159.697 16.4792C159.797 15.8756 159.439 15.2317 159.837 14.6684C160.115 14.2861 160.174 14.7489 160.353 14.7891C160.393 14.8293 160.393 14.8495 160.373 14.8897C160.473 15.6342 160.473 16.3585 160.373 17.103C159.956 18.3303 159.956 18.3303 158.624 18.3303C155.563 18.3303 152.482 18.3102 149.421 18.3303C149.142 18.3303 148.725 18.1895 148.645 18.6724C148.586 19.1352 148.546 19.5577 149.282 19.5376C152.482 19.4973 155.682 19.5175 158.882 19.5175C160.155 19.5175 160.453 19.7992 160.453 21.0668C160.453 21.61 160.453 22.1533 160.453 22.6965C160.433 23.5014 160.015 23.8434 159.24 23.8434C156.676 23.8233 154.112 23.8434 151.548 23.8434C150.574 23.8434 149.619 23.8635 148.665 23.8635Z" fill="#3D8C82"/>
<path d="M140.476 18.2094C139.283 18.4911 138.09 18.31 136.898 18.3301C134.691 18.3704 134.711 18.3503 134.691 20.5837C134.691 23.1189 134.671 25.6742 134.651 28.2094C134.651 29.2356 134.532 29.3764 133.518 29.4569C132.266 29.5575 131.014 29.5374 129.762 29.4167C128.947 29.3362 128.927 28.6923 128.927 28.0887C128.907 25.6742 128.927 23.2798 128.907 20.8654C128.907 20.0203 128.867 19.1953 128.847 18.3503C129.086 18.2497 128.827 17.646 129.364 17.8271C129.781 18.4106 129.762 19.0947 129.762 19.7788C129.781 22.4348 129.762 25.0706 129.762 27.7265C129.762 28.6923 129.841 28.7728 130.815 28.7929C131.531 28.813 132.266 28.7929 132.982 28.7929C133.578 28.7929 133.856 28.4911 133.896 27.9076C133.916 27.5857 133.916 27.2637 133.916 26.9418C133.916 24.4066 133.916 21.8513 133.916 19.3161C133.916 18.8935 133.836 18.4307 134.234 18.1088C136.162 17.7869 138.09 17.9881 140.038 17.9881C140.237 17.9881 140.376 18.0686 140.476 18.2094Z" fill="#61B7A3"/>
<path d="M140.476 18.2097C138.508 18.2298 136.52 18.0488 134.552 18.2902C134.493 18.2902 134.413 18.2097 134.353 18.1695C134.433 17.5457 134.93 17.6262 135.327 17.6061C136.639 17.5659 137.931 17.6061 139.243 17.586C140.416 17.5659 140.496 17.4653 140.515 16.2781C140.515 16.1373 140.515 16.0166 140.515 15.8757C140.496 14.8697 140.356 14.6886 139.343 14.6886C134.353 14.6685 129.364 14.6685 124.375 14.6886C123.142 14.6886 122.546 16.0769 123.222 17.3647C123.282 17.4854 123.381 17.5659 123.441 17.7067C123.401 18.1896 123.003 17.9482 122.785 18.0286C122.546 18.0085 122.467 17.8274 122.447 17.6463C122.327 16.6806 122.288 15.7148 122.447 14.749C122.506 14.3063 122.785 14.085 123.202 14.0447C123.5 14.0045 123.778 13.9844 124.077 13.9844C129.205 13.9844 134.314 13.9844 139.442 14.0045C141.072 14.0045 141.191 14.1453 141.191 15.8355C141.191 16.3385 141.152 16.8616 141.132 17.3647C141.152 17.8274 140.953 18.1292 140.476 18.2097Z" fill="#369693"/>
<path d="M179.933 29.2355C179.416 29.4971 178.859 29.5172 178.303 29.5172C174.268 29.5172 170.232 29.5172 166.217 29.4971C164.866 29.4971 163.673 29.2154 162.977 27.8673C162.739 27.4045 162.58 26.9216 162.58 26.3985C162.58 23.4005 162.58 20.4025 162.58 17.4045C162.58 16.6802 162.679 15.9558 163.176 15.3723C163.434 15.3522 163.772 14.8492 163.892 15.5132C163.355 16.4588 163.275 17.485 163.275 18.5715C163.315 20.7647 163.295 22.9377 163.295 25.1309C163.295 25.3924 163.295 25.6741 163.315 25.9357C163.454 27.827 164.031 28.4709 165.879 28.7325C166.336 28.7928 166.774 28.813 167.231 28.813C170.431 28.813 173.632 28.813 176.832 28.813C177.249 28.813 177.687 28.7928 178.104 28.8733C178.681 29.155 179.396 28.7727 179.933 29.2355Z" fill="#4DA39F"/>
<path d="M176.653 19.0347C176.196 18.4512 175.599 18.3707 174.884 18.3908C172.995 18.4311 171.087 18.4109 169.199 18.3908C168.602 18.3707 168.324 18.5518 168.344 19.1956C168.364 20.926 168.364 22.6564 168.324 24.3868C168.304 24.93 168.523 25.0709 169.04 25.0709C171.047 25.0508 173.035 25.0508 175.043 25.0508C175.321 25.0508 175.639 24.9703 175.898 25.1514C175.937 25.3928 175.997 25.6343 175.739 25.7751C175.48 25.8958 175.222 25.8958 174.963 25.8958C173.075 25.8958 171.187 25.916 169.298 25.8958C168.046 25.8757 167.708 25.6142 167.589 24.3868C167.39 22.4954 167.43 20.6242 167.668 18.7329C167.768 18.0286 168.205 17.6665 168.861 17.6463C171.127 17.586 173.393 17.586 175.659 17.6463C176.216 17.6665 176.673 17.928 176.911 18.4914C176.951 18.7329 176.852 18.914 176.653 19.0347Z" fill="#449D9D"/>
<path d="M163.872 15.2518C163.613 15.1311 163.474 15.6743 163.196 15.3524C163.812 14.3665 164.746 13.9842 165.82 13.9842C170.133 13.9641 174.447 13.9439 178.76 13.9842C180.35 13.9842 181.344 14.7488 181.702 16.0767C181.543 16.1975 181.404 16.3584 181.185 16.2578C180.33 14.8695 178.999 14.6683 177.508 14.6884C174.029 14.7286 170.531 14.7085 167.052 14.7085C166.118 14.7085 165.184 14.7085 164.349 15.2317C164.19 15.292 164.031 15.3323 163.872 15.2518Z" fill="#309C9B"/>
<path d="M175.918 25.5135C175.719 25.3928 175.739 25.2721 175.918 25.1513C175.937 25.1312 175.977 25.1312 175.977 25.1111C176.514 23.763 177.647 23.8636 178.78 23.924C179.476 23.9441 180.171 23.9441 180.847 23.9843C181.444 24.0246 181.801 24.3666 181.901 24.9904C182.259 27.0427 181.583 28.5517 179.933 29.256C179.337 29.1352 178.7 29.4169 178.124 29.0749C178.382 28.7731 178.76 28.8535 179.098 28.7932C181.026 28.431 181.424 26.8817 181.225 25.3324C181.165 24.8093 180.748 24.6483 180.291 24.6282C179.436 24.5879 178.601 24.6081 177.746 24.6081C177.329 24.6081 177.071 24.8495 176.832 25.1513C176.613 25.433 176.375 25.7751 175.918 25.5135Z" fill="#338685"/>
<path d="M122.804 18.0286C122.983 17.7871 123.262 17.8877 123.48 17.8475C125.289 17.425 127.118 17.5256 128.947 17.7871C128.986 17.7871 129.026 17.8676 129.046 17.9079C129.126 18.0286 129.265 18.1694 129.185 18.3304C129.126 18.5115 128.967 18.3505 128.847 18.3706C127.197 18.2298 125.548 18.3505 123.898 18.3103C123.54 18.2901 123.122 18.3907 122.804 18.0286Z" fill="#308E84"/>
<path d="M181.324 16.2577C181.404 16.1169 181.523 16.0767 181.662 16.0767C181.921 16.7608 182.02 17.465 181.901 18.1893C181.841 18.5716 181.762 18.9942 181.304 19.1551C179.814 19.296 178.303 19.2557 176.812 19.1753C176.752 19.135 176.693 19.0746 176.653 19.0344C176.713 18.9137 176.772 18.793 176.832 18.6722C177.885 18.7728 178.939 18.7728 179.993 18.7527C181.106 18.7326 181.324 18.471 181.245 17.3241C181.225 16.962 181.046 16.5797 181.324 16.2577Z" fill="#237B7D"/>
<path d="M176.832 19.1754C178.342 19.1754 179.833 19.1553 181.344 19.1553C180.787 19.4973 180.151 19.3565 179.575 19.3364C178.641 19.2961 177.706 19.5376 176.832 19.1754Z" fill="#449D9D"/>
<path d="M160.353 17.1029C160.353 16.3585 160.353 15.6341 160.353 14.8896C160.492 15.614 160.532 16.3585 160.353 17.1029Z" fill="#459A9C"/>
<path d="M73.1699 29.0342C71.1424 29.0342 69.1149 29.0543 67.0873 29.0141C66.5308 29.0141 65.9543 28.9537 65.4375 28.7726C64.384 28.3903 63.8274 27.5654 63.8274 26.4185C63.8075 23.34 63.7876 20.2616 63.8274 17.1831C63.8473 15.7344 64.7616 14.7686 66.1928 14.5875C66.65 14.5272 67.0873 14.4869 67.5445 14.4869C71.4207 14.4668 75.2769 14.4668 79.1531 14.4668C80.0277 14.4668 80.8427 14.6278 81.4589 15.3521C81.8366 15.7948 82.0751 16.2978 82.0751 16.8813C82.0751 20.0604 82.1149 23.2596 82.0751 26.4386C82.0552 28.0684 81.121 28.9738 79.491 28.994C77.4038 29.0543 75.2769 29.0342 73.1699 29.0342Z" fill="white"/>
<path d="M103.742 17.4044C103.682 15.5533 102.549 14.4668 100.72 14.4668C96.2678 14.4668 91.7953 14.4668 87.3427 14.4668C86.9253 14.4668 86.488 14.4869 86.0705 14.507C85.5736 14.5473 85.3152 14.7887 85.3152 15.332C85.3351 19.6378 85.3351 23.9235 85.3351 28.2294C85.3351 28.7928 85.5736 29.0141 86.1103 29.0141C87.0644 29.0141 88.0384 29.0342 88.9926 29.0342C89.8274 29.0342 90.0858 28.7726 90.0858 27.9074C90.1057 26.6197 90.1057 25.3119 90.1057 24.0241C90.3244 23.4608 90.8412 23.5614 91.2586 23.5614C94.1409 23.5815 97.0033 23.6418 99.8656 23.6217C100.939 23.6217 102.132 23.7827 102.967 22.7565C103.523 22.2938 103.742 21.67 103.762 20.9658C103.762 19.7787 103.782 18.5915 103.742 17.4044ZM102.41 22.4346C102.41 22.495 102.43 22.5352 102.45 22.5754C101.754 22.5352 101.078 22.6559 100.382 22.6559C97.6195 22.6358 94.8565 22.6559 92.0935 22.6358C91.4971 22.6358 90.9207 22.6761 90.3442 22.8169C89.9864 22.9175 89.6088 23.0181 89.6088 23.5211C89.5292 23.5211 89.4497 23.5815 89.3106 23.7022C89.1913 24.0443 89.2112 24.3863 89.2112 24.7485C89.2112 25.5936 89.1913 26.4185 89.2112 27.2636C89.2311 27.8672 88.9727 28.169 88.3565 28.1489C87.8993 28.1288 87.4421 28.1288 86.9849 28.1489C86.4085 28.169 86.1699 27.9276 86.1699 27.3239C86.1699 23.6217 86.1699 19.9195 86.1699 16.2173C86.1699 15.6137 86.4085 15.332 87.0247 15.332C91.6959 15.332 96.3672 15.3119 101.038 15.3521C102.132 15.3521 102.688 15.835 102.827 16.9416C103.106 18.7928 103.285 20.664 102.41 22.4346Z" fill="white"/>
<path d="M159.836 14.648C159.876 15.3925 159.936 16.1369 159.896 16.8814C159.856 17.6862 159.518 17.8271 158.862 17.8271C156.755 17.8069 154.648 17.8271 152.541 17.8271C151.349 17.8271 150.136 17.8472 148.943 17.8271C148.367 17.8069 148.148 18.0886 148.208 18.6118C148.268 19.1349 147.85 19.8995 148.824 20.0001C149.361 20.0605 149.878 20.0806 150.414 20.0806C153.277 20.1007 156.119 20.1007 158.982 20.0806C159.638 20.0806 159.995 20.2415 159.936 20.9659C159.896 21.4287 159.976 21.8713 159.976 22.3341C159.995 23.0786 159.677 23.3603 158.922 23.3603C155.722 23.3401 152.521 23.3603 149.321 23.3804C148.983 23.3804 148.546 23.2395 148.307 23.6621C148.287 23.6822 148.268 23.7023 148.268 23.7224C147.91 25.4528 148.188 25.7949 150.096 25.7345C152.76 25.6339 155.424 25.7144 158.107 25.6741C160.015 25.654 160.015 25.654 159.995 27.5856C159.976 28.9136 159.876 29.0142 158.584 29.0142C153.913 29.0142 149.242 29.0142 144.57 29.0142C143.457 29.0142 143.398 28.9538 143.398 27.8069C143.398 23.8633 143.378 19.9196 143.378 15.976C143.378 14.5675 143.477 14.4669 144.888 14.4669C149.401 14.4468 153.913 14.4468 158.425 14.4468C158.902 14.4468 159.359 14.5071 159.836 14.648Z" fill="white"/>
<path d="M109.049 26.8214C108.532 27.1031 108.413 27.6463 108.194 28.1292C107.956 28.6524 107.638 28.9139 107.041 28.9542C105.968 29.0145 104.914 29.095 103.841 28.9542C102.966 28.8536 102.907 28.6926 103.344 27.8878C104.179 26.3586 105.014 24.8093 105.849 23.2801C107.26 20.6443 108.691 18.0085 110.063 15.3727C110.401 14.7288 110.858 14.4874 111.534 14.4874C113.104 14.5075 114.694 14.5075 116.265 14.4672C117.06 14.4471 117.577 14.7489 117.934 15.4532C119.425 18.2902 120.936 21.1071 122.427 23.9441C123.142 25.2922 123.937 26.6202 124.534 28.0286C124.872 28.8133 124.792 28.9944 123.957 29.0347C122.804 29.095 121.671 29.0347 120.518 28.9341C120.041 28.8938 119.882 28.4914 119.664 28.1695C119.366 27.7469 119.246 27.1835 118.789 26.8415C118.65 26.922 118.511 26.8817 118.372 26.8415C115.37 26.7811 112.349 26.8013 109.347 26.8214C109.248 26.8214 109.148 26.8214 109.049 26.8214Z" fill="white"/>
<path d="M109.049 26.8213C109.089 26.7811 109.148 26.7811 109.188 26.761C110.262 26.6201 111.355 26.7006 112.448 26.7006C114.456 26.7006 116.483 26.6201 118.491 26.7408C118.59 26.761 118.69 26.7811 118.789 26.8012C118.809 27.0426 118.63 27.0628 118.471 27.103C118.233 26.8414 117.915 26.942 117.636 26.942C115.072 26.9219 112.528 26.942 109.963 26.9219C109.665 26.942 109.347 27.0427 109.049 26.8213Z" fill="#24665F"/>
<path d="M60.9251 15.7345C58.7783 17.4649 56.6116 19.1751 54.4847 20.9256C53.6499 21.6299 53.6697 21.7707 54.5046 22.4347C56.6912 24.1651 58.8777 25.8955 61.0642 27.6057C61.2233 27.7466 61.4022 27.8673 61.5612 28.0081C61.7401 28.1691 61.7997 28.3703 61.7202 28.5916C61.6407 28.8331 61.4419 28.8935 61.2034 28.9136C59.5734 29.0142 57.9434 29.1148 56.3333 28.9941C55.2202 28.9136 54.5642 27.9478 53.7691 27.3039C52.2584 26.0564 50.9067 24.648 49.3364 23.481C48.7798 23.0786 48.2233 23.0786 47.6866 23.32C47.13 23.5816 47.1896 24.1651 47.1896 24.6681C47.1896 26.0162 47.1896 27.3643 47.1896 28.7124C47.0107 28.9538 46.7523 29.0142 46.474 29.0142C45.3808 28.9941 44.2875 29.0745 43.1942 28.9337C42.8165 28.8935 42.6376 28.7929 42.6178 28.3502C42.4985 24.1047 42.5581 19.8593 42.5581 15.6138C42.5581 14.5675 42.6973 14.487 43.7508 14.4669C44.4664 14.4468 45.2019 14.4468 45.9174 14.4468C47.0704 14.4468 47.1499 14.5273 47.1697 15.6741C47.1896 16.5997 47.1697 17.5051 47.1896 18.4307C47.2095 19.7788 48.104 20.3421 49.3364 19.7586C50.3303 19.2757 51.1055 18.4709 51.9205 17.7466C52.9343 16.8613 53.9282 15.976 54.9419 15.0906C55.3991 14.6882 55.9159 14.4669 56.552 14.4669C57.8043 14.487 59.0566 14.4669 60.3089 14.4669C60.6866 14.4669 61.1239 14.487 61.3028 14.8291C61.4817 15.1912 61.0642 15.4327 60.9251 15.7345Z" fill="white"/>
<path d="M129.066 17.8875C127.217 17.8674 125.349 17.8473 123.5 17.8272C122.944 17.7266 122.824 17.3845 122.804 16.8412C122.785 14.4469 122.765 14.4469 125.11 14.4268C129.821 14.4268 134.552 14.4268 139.263 14.4268C140.734 14.4268 140.774 14.4871 140.774 15.9962C140.774 17.8272 140.774 17.8272 138.925 17.8272C137.673 17.8272 136.421 17.8272 135.168 17.8272C134.87 17.8272 134.493 17.7467 134.353 18.1692C134.115 18.5716 134.214 19.0143 134.214 19.4368C134.194 22.1934 134.194 24.9499 134.174 27.6863C134.174 28.9338 134.055 29.0143 132.843 29.0143C132.067 29.0143 131.292 28.974 130.517 29.0143C129.762 29.0545 129.483 28.793 129.503 27.9881C129.543 25.2316 129.523 22.475 129.523 19.7386C129.523 19.2557 129.463 18.7728 129.424 18.2899C129.384 18.0887 129.384 17.8473 129.066 17.8875Z" fill="white"/>
<path d="M181.324 16.2577C181.344 16.9217 181.602 17.5656 181.443 18.2497C181.384 18.5112 181.364 18.813 181.026 18.8734C179.734 19.0545 178.442 18.9941 177.13 18.8935C177.011 18.8935 176.911 18.7527 176.812 18.6923C176.593 18.1088 176.136 17.8875 175.56 17.8875C173.333 17.8875 171.127 17.8875 168.901 17.8875C168.304 17.8875 167.887 18.0887 167.827 18.7929C167.688 20.7647 167.648 22.7366 167.807 24.7084C167.847 25.1712 167.966 25.5334 168.463 25.5535C170.928 25.6541 173.413 25.7346 175.878 25.5132C176.295 25.5736 176.514 25.3523 176.673 24.97C176.852 24.5072 177.209 24.3462 177.687 24.3664C178.561 24.3865 179.456 24.3462 180.33 24.3664C181.105 24.3865 181.463 24.7688 181.463 25.5937C181.463 26.7607 181.324 27.8674 180.251 28.5917C179.595 29.0545 178.839 28.9941 178.104 29.0746C174.963 29.0545 171.823 29.0545 168.662 29.0344C167.628 29.0344 166.595 29.0947 165.541 28.9338C163.911 28.6722 163.116 27.968 163.057 26.3181C162.957 23.2798 162.997 20.2215 163.017 17.1833C163.017 16.4589 163.414 15.8553 163.812 15.2718C164.587 14.6682 165.462 14.467 166.436 14.467C170.352 14.4871 174.268 14.5072 178.183 14.467C179.654 14.4468 180.728 14.8895 181.324 16.2577Z" fill="white"/>
<path d="M72.9511 15.1108C75.078 15.1108 77.2248 15.0907 79.3517 15.1108C80.9022 15.1309 81.5582 15.7748 81.578 17.3442C81.5979 20.2416 81.5979 23.1188 81.578 26.0162C81.5582 27.807 80.9817 28.3905 79.2126 28.4106C75.078 28.4307 70.9435 28.4307 66.8089 28.4106C64.9802 28.4106 64.364 27.7667 64.3441 25.8955C64.3242 23.1993 64.3242 20.483 64.3242 17.7869C64.3242 17.5454 64.3242 17.304 64.364 17.0625C64.5627 15.6541 65.1193 15.1309 66.5306 15.1108C68.6774 15.0907 70.8242 15.0907 72.9511 15.1108Z" fill="#01B06F"/>
<path d="M102.45 22.5556C101.953 22.9379 101.356 22.9379 100.78 22.9379C97.6791 22.9379 94.5782 22.9178 91.4971 22.9781C90.861 22.9781 90.0659 22.7568 89.6286 23.5415C89.2907 24.7286 89.4895 25.956 89.4497 27.1633C89.41 28.4309 89.4497 28.451 88.1776 28.4107C87.4421 28.3906 86.5078 28.7729 86.0308 28.2498C85.6133 27.787 85.9314 26.8413 85.9314 26.117C85.9115 22.7166 85.9513 19.2961 85.9115 15.8956C85.9115 15.2317 86.1301 15.0908 86.7464 15.0908C91.4574 15.1109 96.1485 15.1109 100.86 15.1311C102.45 15.1311 103.086 15.6944 103.185 17.2639C103.265 18.4711 103.225 19.6985 103.205 20.9057C103.185 21.5496 102.907 22.113 102.45 22.5556Z" fill="#01B26E"/>
<path d="M151.687 15.1109C153.993 15.1109 156.278 15.131 158.584 15.0907C159.2 15.0907 159.419 15.2517 159.399 15.9157C159.36 17.2437 159.379 17.2437 158.087 17.2437C154.986 17.2638 151.885 17.1431 148.785 17.304C147.671 17.3644 147.493 17.6461 147.512 19.135C147.532 20.2014 147.83 20.5435 148.904 20.5636C151.627 20.6038 154.35 20.6038 157.074 20.6038C157.63 20.6038 158.187 20.6239 158.763 20.6038C159.26 20.5837 159.379 20.805 159.399 21.2678C159.419 22.8171 159.439 22.8171 157.908 22.8171C154.867 22.8171 151.826 22.8171 148.765 22.8171C147.791 22.8171 147.612 23.0183 147.532 23.9841C147.512 24.2457 147.512 24.5274 147.512 24.7889C147.552 25.795 147.87 26.137 148.904 26.137C151.607 26.1571 154.291 26.137 156.994 26.137C157.372 26.137 157.749 26.137 158.107 26.1571C159.399 26.2376 159.697 26.6803 159.36 27.9881C159.22 28.5515 158.783 28.3905 158.445 28.3905C155.205 28.3905 151.985 28.3704 148.745 28.3704C147.353 28.3704 145.962 28.3503 144.571 28.3704C144.093 28.3704 143.915 28.2296 143.915 27.7266C143.934 23.7427 143.934 19.7789 143.915 15.795C143.915 15.1913 144.093 15.0103 144.69 15.0103C147.015 15.0505 149.341 15.0304 151.667 15.0304C151.687 15.0907 151.687 15.0907 151.687 15.1109Z" fill="#01B06C"/>
<path d="M124.077 28.4108C122.963 28.4108 121.91 28.4108 120.876 28.4108C120.379 28.4108 120.161 28.0889 120.041 27.6865C119.664 26.4793 118.928 26.0366 117.636 26.0768C115.032 26.1774 112.408 26.1573 109.784 26.097C108.89 26.0768 108.314 26.3786 108.055 27.1634C107.697 28.2096 107.021 28.5517 105.968 28.4108C105.531 28.3505 105.054 28.4108 104.616 28.4108C103.781 28.3907 103.702 28.27 104.099 27.5255C105.471 24.9903 106.882 22.4752 108.254 19.9601C109.009 18.5718 109.765 17.1634 110.46 15.7348C110.679 15.272 110.957 15.0708 111.434 15.0708C113.144 15.0708 114.853 15.0909 116.563 15.0708C117.099 15.0708 117.278 15.433 117.497 15.8153C119.385 19.3565 121.274 22.8978 123.162 26.439C123.46 27.0426 123.858 27.606 124.077 28.4108Z" fill="#02B16F"/>
<path d="M118.491 26.7608C115.39 26.7608 112.289 26.7608 109.188 26.781C109.367 26.62 109.586 26.6602 109.804 26.6602C112.548 26.6602 115.291 26.6602 118.034 26.6804C118.193 26.6602 118.352 26.7206 118.491 26.7608Z" fill="#52ABA4"/>
<path d="M60.6071 15.272C59.7325 15.9762 58.8778 16.6804 58.0032 17.3645C56.6316 18.4712 55.2402 19.5577 53.8885 20.7046C52.9741 21.4691 53.0139 21.8514 53.968 22.616C56.1148 24.3263 58.2616 26.0164 60.3885 27.7066C60.5872 27.8675 60.9252 27.9883 60.8258 28.2901C60.7463 28.5315 60.3885 28.4309 60.1698 28.4309C59.2356 28.451 58.3013 28.3706 57.3671 28.4712C56.234 28.5718 55.3793 28.1291 54.5643 27.3846C53.0536 26.0164 51.5032 24.6885 49.9726 23.3404C49.5551 22.9782 49.1178 22.7166 48.5414 22.6965C47.1499 22.6362 46.6928 23.0788 46.653 24.4671C46.6331 25.5738 46.6331 26.6804 46.653 27.7871C46.653 28.27 46.4741 28.4712 45.997 28.451C45.2417 28.4309 44.5062 28.4108 43.7509 28.451C43.1943 28.4712 43.0154 28.2498 43.0154 27.7066C43.0551 25.3323 43.075 22.9581 43.075 20.5637C43.075 19.0144 43.0551 17.4852 43.0154 15.9359C42.9955 15.2921 43.2142 15.0104 43.89 15.0506C44.5857 15.111 45.2814 15.111 45.9772 15.0909C46.5139 15.0708 46.6729 15.3122 46.653 15.8152C46.6132 16.7005 46.6331 17.606 46.653 18.4913C46.6729 20.1814 47.627 20.8655 49.2967 20.3625C49.6545 20.2619 49.9726 20.0607 50.2707 19.7991C51.9206 18.3504 53.5903 16.9017 55.2402 15.4531C55.4588 15.2518 55.6775 15.0708 55.9955 15.0708C57.5062 15.0708 59.0368 15.0708 60.5475 15.0708C60.5475 15.1512 60.5674 15.2116 60.6071 15.272Z" fill="#03B272"/>
<path d="M131.869 15.1108C134.373 15.1108 136.898 15.131 139.402 15.0907C140.019 15.0907 140.237 15.2919 140.158 15.8956C140.118 16.1169 140.118 16.3382 140.138 16.5394C140.197 17.0827 139.959 17.2436 139.442 17.2235C138.051 17.2034 136.659 17.2034 135.268 17.2235C133.837 17.2235 133.578 17.4851 133.558 18.9137C133.538 21.7306 133.538 24.5475 133.538 27.3442C133.538 28.3905 133.538 28.3905 132.485 28.3905C131.968 28.3905 131.451 28.3302 130.954 28.4106C130.08 28.5314 129.96 28.129 129.98 27.3644C130.02 24.5273 130.02 21.6903 130.02 18.8533C130.02 17.4851 129.762 17.2235 128.43 17.2235C127.038 17.2034 125.647 17.2034 124.256 17.2235C123.659 17.2436 123.381 17.0626 123.441 16.3986C123.54 15.0304 123.162 15.0907 124.733 15.0907C127.118 15.0907 129.483 15.0907 131.869 15.0907C131.869 15.1108 131.869 15.1108 131.869 15.1108Z" fill="#01AE6D"/>
<path d="M172.3 15.0909C174.427 15.0909 176.573 15.111 178.7 15.0909C180.748 15.0707 180.986 16.4993 180.887 17.9078C180.867 18.1894 180.728 18.3303 180.43 18.3705C179.495 18.5114 178.561 18.4913 177.627 18.451C177.368 18.451 177.15 18.3303 177.031 18.109C176.693 17.4651 176.116 17.3645 175.46 17.3645C173.214 17.3846 170.968 17.3645 168.722 17.3846C167.628 17.3846 167.291 17.6261 167.211 18.7126C167.052 20.7649 167.092 22.8172 167.171 24.8695C167.191 25.6744 167.748 26.0969 168.503 26.0969C170.988 26.117 173.472 26.117 175.957 26.117C176.394 26.117 176.752 25.9359 176.911 25.5134C177.09 25.0104 177.448 24.8896 177.905 24.8896C178.68 24.8896 179.456 24.8896 180.231 24.9098C180.688 24.9098 180.927 25.1311 180.867 25.614C180.847 25.8554 180.847 26.0969 180.847 26.3383C180.768 27.7267 180.092 28.451 178.72 28.451C174.427 28.4711 170.113 28.4711 165.82 28.4108C164.269 28.3907 163.633 27.7468 163.593 26.1774C163.514 23.119 163.414 20.0808 163.613 17.0224C163.713 15.6945 164.428 15.1311 165.74 15.111C167.966 15.0707 170.133 15.0707 172.3 15.0909Z" fill="#02AE6C"/>
<path d="M72.9512 26.1774C71.7585 26.1774 70.546 26.1976 69.3533 26.1774C68.3197 26.1573 67.942 25.775 67.942 24.7288C67.9221 22.7569 67.9221 20.7851 67.9619 18.8133C67.9818 17.606 68.2402 17.3042 69.4328 17.2841C71.7983 17.2438 74.1836 17.2438 76.549 17.2841C77.5628 17.3042 78.02 17.7469 78.0399 18.7931C78.0796 20.8253 78.0796 22.8374 78.02 24.8696C78.0001 25.7549 77.5032 26.1774 76.6286 26.1976C75.416 26.1976 74.1836 26.1774 72.9512 26.1774Z" fill="white"/>
<path d="M94.419 20.7649C93.2463 20.7649 92.0735 20.785 90.9007 20.7649C89.7478 20.7448 89.4894 20.4631 89.4695 19.3363C89.4297 17.3846 89.5291 17.2639 91.4573 17.2438C93.6438 17.2236 95.8304 17.2236 98.0169 17.2236C99.2294 17.2236 99.6667 17.7267 99.6667 19.0747C99.6866 20.2015 99.1499 20.7649 98.0169 20.785C96.8242 20.785 95.6117 20.785 94.419 20.7649Z" fill="white"/>
<path d="M113.919 23.9037C113.084 23.9037 112.269 23.9238 111.434 23.9037C110.242 23.8634 109.944 23.4007 110.46 22.294C111.255 20.624 112.13 18.9741 112.965 17.3242C113.144 16.962 113.422 16.8413 113.8 16.8413C114.257 16.8413 114.615 16.8816 114.853 17.3644C115.668 18.9942 116.523 20.624 117.318 22.2538C117.855 23.3403 117.497 23.8634 116.304 23.9037C116.205 23.9037 116.086 23.9037 115.986 23.9037C115.311 23.9037 114.615 23.9037 113.919 23.9037Z" fill="white"/>
<path d="M77.2647 18.2093C77.7417 19.4165 77.5827 20.6841 77.543 21.9316C77.5032 22.8169 77.4833 23.7022 77.4635 24.5876C77.4436 25.332 77.0659 25.7546 76.4099 25.7546C74.0644 25.7546 71.7188 25.8954 69.3931 25.6942C68.8365 25.6338 68.5384 25.3723 68.5384 24.8491C68.4787 22.6157 68.3794 20.3823 68.6974 18.1489C68.6974 18.1087 68.7769 18.0886 68.8167 18.0483C71.2616 17.988 73.7066 18.0282 76.1515 18.0282C76.3901 18.0282 76.7677 17.8672 76.8075 18.3501C76.4696 18.6519 76.0521 18.5916 75.6546 18.5916C73.9252 18.5916 72.176 18.5916 70.4466 18.5916C69.4527 18.5916 69.3732 18.6721 69.3732 19.6379C69.3732 21.1067 69.3732 22.5554 69.3732 24.0242C69.3732 24.6278 69.6118 24.9095 70.228 24.9095C72.0965 24.9095 73.965 24.9095 75.8335 24.9095C76.4894 24.9095 76.7479 24.5876 76.728 23.9638C76.6882 22.6761 76.8075 21.3682 76.6087 20.0805C76.5491 19.6177 76.5292 19.155 76.6087 18.7123C76.6087 18.2294 77.1057 18.4709 77.2647 18.2093Z" fill="#4EAAA0"/>
<path d="M76.7875 18.3703C76.6284 18.1087 76.37 18.1892 76.1315 18.1892C73.9449 18.1892 71.7584 18.1892 69.5917 18.1892C69.393 18.1892 69.1942 18.1892 68.9755 18.3099C68.6774 18.4709 68.8563 18.149 68.7966 18.0685C68.9954 17.8472 69.2737 17.8472 69.5321 17.8472C71.818 17.8472 74.104 17.8472 76.37 17.8472C76.7278 17.8472 77.0657 17.8673 77.2645 18.2295C77.2446 18.4105 77.2248 18.6319 77.0459 18.6922C76.9664 18.7124 76.9862 18.3904 76.7875 18.3703Z" fill="#349388"/>
<path d="M98.9113 18.2095C99.2095 18.632 99.0704 19.0948 99.0107 19.5375C98.9511 20.0606 98.6132 20.3021 98.0566 20.2819C95.7508 20.2618 93.4251 20.2819 91.1193 20.2618C90.2049 20.2618 90.0459 20.0807 90.0658 19.1753C90.0857 18.793 89.9664 18.3705 90.2248 18.0083C90.4435 18.0888 90.6025 18.2498 90.7019 18.4711C90.9404 19.5777 90.9404 19.5777 92.0337 19.5777C93.7431 19.5777 95.4526 19.5576 97.1422 19.5777C97.838 19.5978 98.2753 19.3765 98.3945 18.6522C98.5337 18.4308 98.6927 18.2699 98.9113 18.2095Z" fill="#55A8A5"/>
<path d="M98.9114 18.2093C98.8915 18.4105 98.7921 18.5111 98.5735 18.5111C98.0368 18.6922 97.4603 18.5916 96.9038 18.5916C95.1744 18.6117 93.445 18.6117 91.7157 18.5916C91.3181 18.5916 90.9007 18.652 90.5827 18.3502C90.364 18.33 90.2447 18.2093 90.2249 17.988C90.4435 17.7868 90.7218 17.827 90.9802 17.827C93.3258 17.827 95.6515 17.827 97.997 17.8471C98.3548 17.8471 98.7325 17.7868 98.9114 18.2093Z" fill="#40998C"/>
<path d="M113.522 23.3604C112.826 23.3604 112.13 23.3604 111.434 23.3604C110.937 23.3604 110.798 23.0586 110.977 22.6763C111.792 20.966 112.488 19.2155 113.462 17.6058C113.74 17.1431 114.098 17.1229 114.396 17.5857C115.41 19.1551 116.106 20.8654 116.841 22.5757C117.02 22.9982 116.861 23.1994 116.384 23.2598C115.45 23.3805 114.476 23.3604 113.522 23.3604Z" fill="#02B16F"/>
<path d="M90.6224 18.3504C93.0276 18.3303 95.4527 18.3101 97.8579 18.3101C98.1163 18.3101 98.3946 18.2699 98.5934 18.5113C98.5139 19.7789 98.5139 19.7789 97.2417 19.7789C95.4328 19.7789 93.6239 19.7789 91.8151 19.7789C90.4833 19.7789 90.4833 19.7588 90.6224 18.3504Z" fill="#F8FDFD"/>
<path d="M113.919 22.7567C113.343 22.7567 112.746 22.7365 112.17 22.7567C111.752 22.7768 111.534 22.6359 111.732 22.1933C112.329 20.9659 112.925 19.7385 113.581 18.5313C113.8 18.1289 114.138 18.31 114.317 18.6722C114.933 19.8593 115.549 21.0665 116.145 22.2536C116.304 22.5756 116.145 22.6963 115.847 22.6963C115.211 22.6963 114.575 22.6963 113.939 22.6963C113.919 22.7365 113.919 22.7567 113.919 22.7567Z" fill="#FBFEFD"/>
</g>
<defs>
<clipPath id="clip0_13_513">
<rect width="182" height="40" fill="white"/>
</clipPath>
</defs>
</svg>
